<!--?xml version="1.0" standalone="no"?-->

<svg version="1.0" xmlns="http://www.w3.org/2000/svg" width="300.000000pt" height="231.000000pt" viewBox="0 0 300.000000 231.000000" preserveAspectRatio="xMidYMid meet">
<g transform="translate(0.000000,231.000000) scale(0.100000,-0.100000)" fill="#000000" stroke="none">
<path fill="#7cb3df" class="node" id="node1" d="M1116 2294 c-139 -43 -259 -183 -273 -320 l-6 -53 -271 -3 c-303 -4
-313 -6 -413 -79 -64 -48 -110 -113 -135 -191 -17 -55 -18 -105 -18 -687 0
-683 0 -683 57 -775 37 -59 61 -85 118 -121 106 -68 34 -65 1325 -65 1291 0
1219 -3 1325 65 57 36 81 62 118 121 57 92 57 92 57 775 0 582 -1 632 -18 687
-25 78 -71 143 -135 191 -100 73 -110 75 -413 79 l-271 3 -6 53 c-10 99 -91
223 -183 279 -86 53 -120 57 -478 56 -264 0 -341 -3 -380 -15z m561 -668 c317
-84 539 -402 509 -728 -9 -89 -51 -216 -97 -295 -78 -130 -224 -244 -384 -299
-71 -25 -94 -28 -205 -28 -111 0 -134 3 -205 28 -160 55 -306 169 -384 299
-208 350 -73 801 294 976 70 34 119 49 215 65 43 8 203 -4 257 -18z"></path>
<path fill="#7cb3df" class="node" id="node2" d="M1385 1333 c-117 -42 -181 -98 -238 -208 -30 -56 -32 -66 -32 -165 1
-99 3 -109 33 -168 42 -81 104 -143 184 -184 59 -30 69 -32 168 -32 99 0 109
2 168 32 80 41 142 103 184 184 30 59 32 69 33 168 0 100 -2 108 -33 168 -71
136 -189 213 -337 219 -58 3 -93 -1 -130 -14z"></path>
</g>
<g transform="translate(0.000000,231.000000) scale(0.100000,-0.100000)" fill="#FFFFFF" stroke="none">


<path fill="#eff5f9" class="node" id="node5" d="M1420 1644 c-96 -16 -145 -31 -215 -65 -316 -151 -468 -511 -355
-838 37 -108 81 -180 160 -261 77 -78 173 -138 285 -176 71 -25 94 -28 205
-28 111 0 134 3 205 28 160 55 306 169 384 299 207 347 74 799 -287 974 -41
19 -97 41 -125 49 -54 14 -214 26 -257 18z m245 -332 c82 -39 142 -98 187
-184 31 -60 33 -68 33 -168 -1 -99 -3 -109 -33 -168 -42 -81 -104 -143 -184
-184 -59 -30 -69 -32 -168 -32 -99 0 -109 2 -168 32 -80 41 -142 103 -184 184
-30 59 -32 69 -33 168 0 99 2 109 32 165 57 110 121 166 238 208 79 28 192 19
280 -21z"></path>


</g>
</svg>